<?xml version="1.0" encoding="UTF-8" standalone="no"?>
<!DOCTYPE svg PUBLIC "-//W3C//DTD SVG 1.1//EN"
 "http://www.w3.org/Graphics/SVG/1.1/DTD/svg11.dtd">
<!-- Generated by graphviz version 2.38.0 (20140413.2041)
 -->
<!-- Title: hierarchy Pages: 1 -->
<svg width="700pt" height="353pt"
 viewBox="0.00 0.00 699.50 353.00" xmlns="http://www.w3.org/2000/svg" xmlns:xlink="http://www.w3.org/1999/xlink">
<g id="graph0" class="graph" transform="scale(1 1) rotate(0) translate(4 349)">
<title>hierarchy</title>
<polygon fill="white" stroke="none" points="-4,4 -4,-349 695.5,-349 695.5,4 -4,4"/>
<!-- Shell -->
<g id="node1" class="node"><title>Shell</title>
<polygon fill="#f2f2f2" stroke="black" points="0,-157.5 0,-247.5 210,-247.5 210,-157.5 0,-157.5"/>
<text text-anchor="middle" x="105" y="-236.3" font-family="Times,serif" font-size="14.00">Shell</text>
<polyline fill="none" stroke="black" points="0,-232.5 210,-232.5 "/>
<text text-anchor="start" x="72" y="-221.3" font-family="Times,serif" font-size="14.00">+color</text>
<text text-anchor="start" x="72" y="-206.3" font-family="Times,serif" font-size="14.00">+magnitude</text>
<text text-anchor="start" x="72" y="-191.3" font-family="Times,serif" font-size="14.00">+special</text>
<text text-anchor="middle" x="105" y="-176.3" font-family="Times,serif" font-size="14.00">+type</text>
<polyline fill="none" stroke="black" points="0,-172.5 210,-172.5 "/>
<text text-anchor="middle" x="105" y="-161.3" font-family="Times,serif" font-size="14.00">...</text>
</g>
<!-- Board -->
<g id="node2" class="node"><title>Board</title>
<polygon fill="#f2f2f2" stroke="black" points="203.5,-284.5 203.5,-344.5 434.5,-344.5 434.5,-284.5 203.5,-284.5"/>
<text text-anchor="middle" x="319" y="-333.3" font-family="Times,serif" font-size="14.00">Board</text>
<polyline fill="none" stroke="black" points="203.5,-329.5 434.5,-329.5 "/>
<text text-anchor="middle" x="319" y="-318.3" font-family="Times,serif" font-size="14.00">&#45;grid</text>
<polyline fill="none" stroke="black" points="203.5,-314.5 434.5,-314.5 "/>
<text text-anchor="start" x="275.5" y="-303.3" font-family="Times,serif" font-size="14.00">+get(row,col)</text>
<text text-anchor="middle" x="319" y="-288.3" font-family="Times,serif" font-size="14.00">+set(row,col,x)</text>
</g>
<!-- Shell&#45;&gt;Board -->
<g id="edge1" class="edge"><title>Shell&#45;&gt;Board</title>
<path fill="none" stroke="black" d="M190.809,-247.607C214.879,-259.98 240.44,-273.119 262.352,-284.382"/>
<text text-anchor="middle" x="256.223" y="-272.78" font-family="Times,serif" font-size="14.00">1</text>
<text text-anchor="middle" x="196.937" y="-251.809" font-family="Times,serif" font-size="14.00">*</text>
</g>
<!-- Configuration -->
<g id="node3" class="node"><title>Configuration</title>
<polygon fill="#f2f2f2" stroke="black" points="163,-0.5 163,-120.5 423,-120.5 423,-0.5 163,-0.5"/>
<text text-anchor="middle" x="293" y="-109.3" font-family="Times,serif" font-size="14.00">Configuration</text>
<polyline fill="none" stroke="black" points="163,-105.5 423,-105.5 "/>
<text text-anchor="start" x="235" y="-94.3" font-family="Times,serif" font-size="14.00">+allowedColors</text>
<text text-anchor="start" x="235" y="-79.3" font-family="Times,serif" font-size="14.00">+allowedMagnitudes</text>
<text text-anchor="start" x="235" y="-64.3" font-family="Times,serif" font-size="14.00">+allowedSpecials</text>
<text text-anchor="start" x="235" y="-49.3" font-family="Times,serif" font-size="14.00">+allowedTypes</text>
<text text-anchor="start" x="235" y="-34.3" font-family="Times,serif" font-size="14.00">+height</text>
<text text-anchor="middle" x="293" y="-19.3" font-family="Times,serif" font-size="14.00">+width</text>
<polyline fill="none" stroke="black" points="163,-15.5 423,-15.5 "/>
<text text-anchor="middle" x="293" y="-4.3" font-family="Times,serif" font-size="14.00">...</text>
</g>
<!-- Configuration&#45;&gt;Shell -->
<g id="edge2" class="edge"><title>Configuration&#45;&gt;Shell</title>
<path fill="none" stroke="black" d="M213.544,-120.67C197.008,-132.983 179.858,-145.755 164.206,-157.411"/>
<text text-anchor="middle" x="173.999" y="-151.687" font-family="Times,serif" font-size="14.00">*</text>
<text text-anchor="middle" x="203.75" y="-118.993" font-family="Times,serif" font-size="14.00">1</text>
</g>
<!-- Configuration&#45;&gt;Board -->
<g id="edge3" class="edge"><title>Configuration&#45;&gt;Board</title>
<path fill="none" stroke="black" d="M299.096,-120.583C304.409,-172.081 311.89,-244.59 316.001,-284.437"/>
<text text-anchor="middle" x="319.275" y="-271.288" font-family="Times,serif" font-size="14.00">1</text>
<text text-anchor="middle" x="295.822" y="-126.332" font-family="Times,serif" font-size="14.00">1</text>
</g>
<!-- GameType -->
<g id="node4" class="node"><title>GameType</title>
<polygon fill="#f2f2f2" stroke="black" points="428.5,-165 428.5,-240 691.5,-240 691.5,-165 428.5,-165"/>
<text text-anchor="middle" x="560" y="-228.8" font-family="Times,serif" font-size="14.00">GameType</text>
<polyline fill="none" stroke="black" points="428.5,-225 691.5,-225 "/>
<text text-anchor="middle" x="560" y="-213.8" font-family="Times,serif" font-size="14.00">...</text>
<polyline fill="none" stroke="black" points="428.5,-210 691.5,-210 "/>
<text text-anchor="start" x="500.5" y="-198.8" font-family="Times,serif" font-size="14.00">&#45;makeBoard()</text>
<text text-anchor="start" x="500.5" y="-183.8" font-family="Times,serif" font-size="14.00">+getBoard()</text>
<text text-anchor="middle" x="560" y="-168.8" font-family="Times,serif" font-size="14.00">+selectShell(row,col)</text>
</g>
<!-- Configuration&#45;&gt;GameType -->
<g id="edge4" class="edge"><title>Configuration&#45;&gt;GameType</title>
<path fill="none" stroke="black" d="M405.845,-120.67C434.452,-135.67 464.356,-151.35 490.13,-164.864"/>
<text text-anchor="middle" x="484.066" y="-153.213" font-family="Times,serif" font-size="14.00">1</text>
<text text-anchor="middle" x="411.909" y="-124.921" font-family="Times,serif" font-size="14.00">1</text>
</g>
<!-- GameType&#45;&gt;Board -->
<g id="edge5" class="edge"><title>GameType&#45;&gt;Board</title>
<path fill="none" stroke="black" d="M479.75,-240.128C448.257,-254.503 412.619,-270.769 382.916,-284.327"/>
<text text-anchor="middle" x="392.916" y="-280.708" font-family="Times,serif" font-size="14.00">1</text>
<text text-anchor="middle" x="469.751" y="-236.347" font-family="Times,serif" font-size="14.00">1</text>
</g>
<!-- Player -->
<g id="node5" class="node"><title>Player</title>
<polygon fill="#f2f2f2" stroke="black" points="495.5,-38 495.5,-83 674.5,-83 674.5,-38 495.5,-38"/>
<text text-anchor="middle" x="585" y="-71.8" font-family="Times,serif" font-size="14.00">Player</text>
<polyline fill="none" stroke="black" points="495.5,-68 674.5,-68 "/>
<text text-anchor="middle" x="585" y="-56.8" font-family="Times,serif" font-size="14.00">...</text>
<polyline fill="none" stroke="black" points="495.5,-53 674.5,-53 "/>
<text text-anchor="middle" x="585" y="-41.8" font-family="Times,serif" font-size="14.00">...</text>
</g>
<!-- Player&#45;&gt;GameType -->
<g id="edge6" class="edge"><title>Player&#45;&gt;GameType</title>
<path fill="none" stroke="black" d="M581.149,-83.0682C577.259,-104.851 571.177,-138.908 566.532,-164.919"/>
<text text-anchor="middle" x="572.286" y="-153.04" font-family="Times,serif" font-size="14.00">1</text>
<text text-anchor="middle" x="575.395" y="-87.5472" font-family="Times,serif" font-size="14.00">1+</text>
</g>
</g>
</svg>
