<?xml version="1.0" encoding="UTF-8" standalone="no"?>
<!DOCTYPE svg PUBLIC "-//W3C//DTD SVG 1.1//EN"
 "http://www.w3.org/Graphics/SVG/1.1/DTD/svg11.dtd">
<!-- Generated by graphviz version 2.38.0 (20140413.2041)
 -->
<!-- Title: hierarchy Pages: 1 -->
<svg width="720pt" height="170pt"
 viewBox="0.00 0.00 720.00 170.03" xmlns="http://www.w3.org/2000/svg" xmlns:xlink="http://www.w3.org/1999/xlink">
<g id="graph0" class="graph" transform="scale(0.365666 0.365666) rotate(0) translate(4 461)">
<title>hierarchy</title>
<polygon fill="white" stroke="none" points="-4,4 -4,-461 1965.01,-461 1965.01,4 -4,4"/>
<!-- Shell -->
<g id="node1" class="node"><title>Shell</title>
<polygon fill="#f2f2f2" stroke="black" points="355.5,-0.5 355.5,-90.5 565.5,-90.5 565.5,-0.5 355.5,-0.5"/>
<text text-anchor="middle" x="460.5" y="-79.3" font-family="Times,serif" font-size="14.00">Shell</text>
<polyline fill="none" stroke="black" points="355.5,-75.5 565.5,-75.5 "/>
<text text-anchor="start" x="427.5" y="-64.3" font-family="Times,serif" font-size="14.00">+color</text>
<text text-anchor="start" x="427.5" y="-49.3" font-family="Times,serif" font-size="14.00">+magnitude</text>
<text text-anchor="start" x="427.5" y="-34.3" font-family="Times,serif" font-size="14.00">+special</text>
<text text-anchor="middle" x="460.5" y="-19.3" font-family="Times,serif" font-size="14.00">+type</text>
<polyline fill="none" stroke="black" points="355.5,-15.5 565.5,-15.5 "/>
<text text-anchor="middle" x="460.5" y="-4.3" font-family="Times,serif" font-size="14.00">...</text>
</g>
<!-- Special -->
<g id="node2" class="node"><title>Special</title>
<polygon fill="#f2f2f2" stroke="black" points="0,-135 0,-180 273,-180 273,-135 0,-135"/>
<text text-anchor="middle" x="136.5" y="-168.8" font-family="Times,serif" font-size="14.00">Special</text>
<polyline fill="none" stroke="black" points="0,-165 273,-165 "/>
<text text-anchor="middle" x="136.5" y="-153.8" font-family="Times,serif" font-size="14.00">+effect(board,row,col)</text>
<polyline fill="none" stroke="black" points="0,-150 273,-150 "/>
<text text-anchor="middle" x="136.5" y="-138.8" font-family="Times,serif" font-size="14.00">...</text>
</g>
<!-- Shell&#45;&gt;Special -->
<g id="edge2" class="edge"><title>Shell&#45;&gt;Special</title>
<path fill="none" stroke="black" d="M355.306,-82.2138C304.123,-99.5909 244.278,-119.909 200.124,-134.899"/>
<text text-anchor="middle" x="345.366" y="-77.4256" font-family="Times,serif" font-size="14.00">*</text>
</g>
<!-- Board -->
<g id="node3" class="node"><title>Board</title>
<polygon fill="#f2f2f2" stroke="black" points="345,-127.5 345,-187.5 576,-187.5 576,-127.5 345,-127.5"/>
<text text-anchor="middle" x="460.5" y="-176.3" font-family="Times,serif" font-size="14.00">Board</text>
<polyline fill="none" stroke="black" points="345,-172.5 576,-172.5 "/>
<text text-anchor="middle" x="460.5" y="-161.3" font-family="Times,serif" font-size="14.00">&#45;grid</text>
<polyline fill="none" stroke="black" points="345,-157.5 576,-157.5 "/>
<text text-anchor="start" x="417" y="-146.3" font-family="Times,serif" font-size="14.00">+get(row,col)</text>
<text text-anchor="middle" x="460.5" y="-131.3" font-family="Times,serif" font-size="14.00">+set(row,col,x)</text>
</g>
<!-- Shell&#45;&gt;Board -->
<g id="edge1" class="edge"><title>Shell&#45;&gt;Board</title>
<path fill="none" stroke="black" d="M460.5,-90.6074C460.5,-102.92 460.5,-115.992 460.5,-127.218"/>
<text text-anchor="middle" x="456.274" y="-95.9705" font-family="Times,serif" font-size="14.00">*</text>
</g>
<!-- Configuration -->
<g id="node4" class="node"><title>Configuration</title>
<polygon fill="#f2f2f2" stroke="black" points="555.5,-224.5 555.5,-344.5 815.5,-344.5 815.5,-224.5 555.5,-224.5"/>
<text text-anchor="middle" x="685.5" y="-333.3" font-family="Times,serif" font-size="14.00">Configuration</text>
<polyline fill="none" stroke="black" points="555.5,-329.5 815.5,-329.5 "/>
<text text-anchor="start" x="627.5" y="-318.3" font-family="Times,serif" font-size="14.00">+allowedColors</text>
<text text-anchor="start" x="627.5" y="-303.3" font-family="Times,serif" font-size="14.00">+allowedMagnitudes</text>
<text text-anchor="start" x="627.5" y="-288.3" font-family="Times,serif" font-size="14.00">+allowedSpecials</text>
<text text-anchor="start" x="627.5" y="-273.3" font-family="Times,serif" font-size="14.00">+allowedTypes</text>
<text text-anchor="start" x="627.5" y="-258.3" font-family="Times,serif" font-size="14.00">+height</text>
<text text-anchor="middle" x="685.5" y="-243.3" font-family="Times,serif" font-size="14.00">+width</text>
<polyline fill="none" stroke="black" points="555.5,-239.5 815.5,-239.5 "/>
<text text-anchor="middle" x="685.5" y="-228.3" font-family="Times,serif" font-size="14.00">...</text>
</g>
<!-- Shell&#45;&gt;Configuration -->
<g id="edge3" class="edge"><title>Shell&#45;&gt;Configuration</title>
<path fill="none" stroke="black" d="M564.992,-90.7223C581.886,-100.951 598.178,-113.021 611.5,-127 637.522,-154.304 655.814,-192.449 667.702,-224.244"/>
<text text-anchor="middle" x="570.474" y="-95.3854" font-family="Times,serif" font-size="14.00">*</text>
</g>
<!-- Board&#45;&gt;Configuration -->
<g id="edge4" class="edge"><title>Board&#45;&gt;Configuration</title>
<path fill="none" stroke="black" d="M512.969,-187.649C532.836,-198.687 556.237,-211.687 579.284,-224.491"/>
</g>
<!-- GameType -->
<g id="node5" class="node"><title>GameType</title>
<polygon fill="#f2f2f2" stroke="black" points="1118,-381.5 1118,-456.5 1381,-456.5 1381,-381.5 1118,-381.5"/>
<text text-anchor="middle" x="1249.5" y="-445.3" font-family="Times,serif" font-size="14.00">GameType</text>
<polyline fill="none" stroke="black" points="1118,-441.5 1381,-441.5 "/>
<text text-anchor="middle" x="1249.5" y="-430.3" font-family="Times,serif" font-size="14.00">...</text>
<polyline fill="none" stroke="black" points="1118,-426.5 1381,-426.5 "/>
<text text-anchor="start" x="1190" y="-415.3" font-family="Times,serif" font-size="14.00">&#45;makeBoard()</text>
<text text-anchor="start" x="1190" y="-400.3" font-family="Times,serif" font-size="14.00">+getBoard()</text>
<text text-anchor="middle" x="1249.5" y="-385.3" font-family="Times,serif" font-size="14.00">+selectShell(row,col)</text>
</g>
<!-- Board&#45;&gt;GameType -->
<g id="edge6" class="edge"><title>Board&#45;&gt;GameType</title>
<path fill="none" stroke="black" d="M460.452,-187.514C462.101,-229.492 471.915,-306.359 519.5,-345 564.859,-381.833 920.264,-403.37 1117.93,-412.614"/>
</g>
<!-- Configuration&#45;&gt;GameType -->
<g id="edge5" class="edge"><title>Configuration&#45;&gt;GameType</title>
<path fill="none" stroke="black" d="M815.807,-334.447C827.796,-338.27 839.822,-341.859 851.5,-345 939.181,-368.587 1039.78,-386.964 1117.9,-399.381"/>
</g>
<!-- UserInput -->
<g id="node6" class="node"><title>UserInput</title>
<polygon fill="#f2f2f2" stroke="black" points="887.5,-262 887.5,-307 1087.5,-307 1087.5,-262 887.5,-262"/>
<text text-anchor="middle" x="987.5" y="-295.8" font-family="Times,serif" font-size="14.00">UserInput</text>
<polyline fill="none" stroke="black" points="887.5,-292 1087.5,-292 "/>
<text text-anchor="middle" x="987.5" y="-280.8" font-family="Times,serif" font-size="14.00">...</text>
<polyline fill="none" stroke="black" points="887.5,-277 1087.5,-277 "/>
<text text-anchor="middle" x="987.5" y="-265.8" font-family="Times,serif" font-size="14.00">...</text>
</g>
<!-- UserInput&#45;&gt;GameType -->
<g id="edge13" class="edge"><title>UserInput&#45;&gt;GameType</title>
<path fill="none" stroke="black" d="M1030.18,-307.083C1069.91,-327.176 1129.93,-357.529 1177.14,-381.406"/>
</g>
<!-- NetworkInput -->
<g id="node7" class="node"><title>NetworkInput</title>
<polygon fill="#f2f2f2" stroke="black" points="1679.5,-262 1679.5,-307 1901.5,-307 1901.5,-262 1679.5,-262"/>
<text text-anchor="middle" x="1790.5" y="-295.8" font-family="Times,serif" font-size="14.00">NetworkInput</text>
<polyline fill="none" stroke="black" points="1679.5,-292 1901.5,-292 "/>
<text text-anchor="middle" x="1790.5" y="-280.8" font-family="Times,serif" font-size="14.00">...</text>
<polyline fill="none" stroke="black" points="1679.5,-277 1901.5,-277 "/>
<text text-anchor="middle" x="1790.5" y="-265.8" font-family="Times,serif" font-size="14.00">...</text>
</g>
<!-- NetworkInput&#45;&gt;GameType -->
<g id="edge15" class="edge"><title>NetworkInput&#45;&gt;GameType</title>
<path fill="none" stroke="black" d="M1744.02,-307.122C1715.52,-319.671 1677.99,-334.936 1643.5,-345 1557.52,-370.088 1458.36,-388.406 1381.04,-400.417"/>
</g>
<!-- Renderer -->
<g id="node8" class="node"><title>Renderer</title>
<polygon fill="#f2f2f2" stroke="black" points="1411.5,-262 1411.5,-307 1607.5,-307 1607.5,-262 1411.5,-262"/>
<text text-anchor="middle" x="1509.5" y="-295.8" font-family="Times,serif" font-size="14.00">Renderer</text>
<polyline fill="none" stroke="black" points="1411.5,-292 1607.5,-292 "/>
<text text-anchor="middle" x="1509.5" y="-280.8" font-family="Times,serif" font-size="14.00">...</text>
<polyline fill="none" stroke="black" points="1411.5,-277 1607.5,-277 "/>
<text text-anchor="middle" x="1509.5" y="-265.8" font-family="Times,serif" font-size="14.00">...</text>
</g>
<!-- Renderer&#45;&gt;GameType -->
<g id="edge7" class="edge"><title>Renderer&#45;&gt;GameType</title>
<path fill="none" stroke="black" d="M1467.15,-307.083C1427.72,-327.176 1368.16,-357.529 1321.31,-381.406"/>
</g>
<!-- Player -->
<g id="node9" class="node"><title>Player</title>
<polygon fill="#f2f2f2" stroke="black" points="1160,-262 1160,-307 1339,-307 1339,-262 1160,-262"/>
<text text-anchor="middle" x="1249.5" y="-295.8" font-family="Times,serif" font-size="14.00">Player</text>
<polyline fill="none" stroke="black" points="1160,-292 1339,-292 "/>
<text text-anchor="middle" x="1249.5" y="-280.8" font-family="Times,serif" font-size="14.00">...</text>
<polyline fill="none" stroke="black" points="1160,-277 1339,-277 "/>
<text text-anchor="middle" x="1249.5" y="-265.8" font-family="Times,serif" font-size="14.00">...</text>
</g>
<!-- Player&#45;&gt;GameType -->
<g id="edge8" class="edge"><title>Player&#45;&gt;GameType</title>
<path fill="none" stroke="black" d="M1249.5,-307.083C1249.5,-327.176 1249.5,-357.529 1249.5,-381.406"/>
<text text-anchor="middle" x="1245.27" y="-312.446" font-family="Times,serif" font-size="14.00">1+</text>
</g>
<!-- LocalHuman -->
<g id="node10" class="node"><title>LocalHuman</title>
<polygon fill="#f2f2f2" stroke="black" points="1010.5,-135 1010.5,-180 1226.5,-180 1226.5,-135 1010.5,-135"/>
<text text-anchor="middle" x="1118.5" y="-168.8" font-family="Times,serif" font-size="14.00">LocalHuman</text>
<polyline fill="none" stroke="black" points="1010.5,-165 1226.5,-165 "/>
<text text-anchor="middle" x="1118.5" y="-153.8" font-family="Times,serif" font-size="14.00">...</text>
<polyline fill="none" stroke="black" points="1010.5,-150 1226.5,-150 "/>
<text text-anchor="middle" x="1118.5" y="-138.8" font-family="Times,serif" font-size="14.00">...</text>
</g>
<!-- LocalHuman&#45;&gt;UserInput -->
<g id="edge12" class="edge"><title>LocalHuman&#45;&gt;UserInput</title>
<path fill="none" stroke="black" d="M1095.68,-180.273C1071.64,-203.216 1034,-239.128 1010.06,-261.976"/>
<text text-anchor="middle" x="1086.21" y="-179.772" font-family="Times,serif" font-size="14.00">*</text>
</g>
<!-- LocalHuman&#45;&gt;Player -->
<g id="edge9" class="edge"><title>LocalHuman&#45;&gt;Player</title>
<path fill="none" stroke="black" d="M1141.32,-180.273C1163.01,-200.976 1195.78,-232.238 1219.56,-254.933"/>
<polygon fill="black" stroke="black" points="1217.29,-257.605 1226.94,-261.976 1222.12,-252.541 1217.29,-257.605"/>
</g>
<!-- RemoteHuman -->
<g id="node11" class="node"><title>RemoteHuman</title>
<polygon fill="#f2f2f2" stroke="black" points="1343.5,-135 1343.5,-180 1571.5,-180 1571.5,-135 1343.5,-135"/>
<text text-anchor="middle" x="1457.5" y="-168.8" font-family="Times,serif" font-size="14.00">RemoteHuman</text>
<polyline fill="none" stroke="black" points="1343.5,-165 1571.5,-165 "/>
<text text-anchor="middle" x="1457.5" y="-153.8" font-family="Times,serif" font-size="14.00">...</text>
<polyline fill="none" stroke="black" points="1343.5,-150 1571.5,-150 "/>
<text text-anchor="middle" x="1457.5" y="-138.8" font-family="Times,serif" font-size="14.00">...</text>
</g>
<!-- RemoteHuman&#45;&gt;NetworkInput -->
<g id="edge14" class="edge"><title>RemoteHuman&#45;&gt;NetworkInput</title>
<path fill="none" stroke="black" d="M1521.04,-180.064C1557.1,-192.506 1602.99,-208.679 1643.5,-224 1675.43,-236.078 1710.92,-250.415 1739.03,-261.989"/>
<text text-anchor="middle" x="1528.22" y="-183.321" font-family="Times,serif" font-size="14.00">*</text>
</g>
<!-- RemoteHuman&#45;&gt;Player -->
<g id="edge10" class="edge"><title>RemoteHuman&#45;&gt;Player</title>
<path fill="none" stroke="black" d="M1421.27,-180.273C1385.93,-201.513 1332.09,-233.869 1294.12,-256.684"/>
<polygon fill="black" stroke="black" points="1292.08,-253.825 1285.32,-261.976 1295.69,-259.825 1292.08,-253.825"/>
</g>
<!-- Computer -->
<g id="node12" class="node"><title>Computer</title>
<polygon fill="#f2f2f2" stroke="black" points="1734,-135 1734,-180 1935,-180 1935,-135 1734,-135"/>
<text text-anchor="middle" x="1834.5" y="-168.8" font-family="Times,serif" font-size="14.00">Computer</text>
<polyline fill="none" stroke="black" points="1734,-165 1935,-165 "/>
<text text-anchor="middle" x="1834.5" y="-153.8" font-family="Times,serif" font-size="14.00">...</text>
<polyline fill="none" stroke="black" points="1734,-150 1935,-150 "/>
<text text-anchor="middle" x="1834.5" y="-138.8" font-family="Times,serif" font-size="14.00">...</text>
</g>
<!-- Computer&#45;&gt;GameType -->
<g id="edge16" class="edge"><title>Computer&#45;&gt;GameType</title>
<path fill="none" stroke="black" d="M1889.37,-180.071C1908.09,-190.389 1926.94,-204.775 1937.5,-224 1963.39,-271.138 1973.46,-305.018 1937.5,-345 1901.05,-385.521 1570.46,-405.279 1381.13,-413.346"/>
<text text-anchor="middle" x="1895.13" y="-184.546" font-family="Times,serif" font-size="14.00">*</text>
</g>
<!-- Computer&#45;&gt;Player -->
<g id="edge11" class="edge"><title>Computer&#45;&gt;Player</title>
<path fill="none" stroke="black" d="M1733.84,-172.088C1603.95,-189.737 1392.5,-218.9 1375.5,-224 1348.29,-232.162 1319.54,-245.353 1296.38,-257.244"/>
<polygon fill="black" stroke="black" points="1294.71,-254.165 1287.47,-261.895 1297.95,-260.37 1294.71,-254.165"/>
</g>
</g>
</svg>
